<svg xmlns="http://www.w3.org/2000/svg" width="47" height="47" viewBox="0 0 47 47"><path d="M2.4 31.9c-1.3 0-2.4-1.1-2.4-2.4v-12c0-1.3 1.1-2.4 2.4-2.4s2.4 1.1 2.4 2.4v12.1C4.8 30.9 3.7 31.9 2.4 31.9z"/><path d="M9.4 38c-1.3 0-2.4-1.1-2.4-2.4V11.4c0-1.3 1.1-2.4 2.4-2.4s2.4 1.1 2.4 2.4v24.1C11.9 36.9 10.8 38 9.4 38z"/><path d="M16.5 34.9c-1.3 0-2.4-1.1-2.4-2.4V14.5c0-1.3 1.1-2.4 2.4-2.4 1.3 0 2.4 1.1 2.4 2.4v18.1C18.9 33.9 17.8 34.9 16.5 34.9z"/><path d="M23.5 41c-1.3 0-2.4-1.1-2.4-2.4V8.4c0-1.3 1.1-2.4 2.4-2.4s2.4 1.1 2.4 2.4v30.1C25.9 39.9 24.8 41 23.5 41z"/><path d="M30.5 47c-1.3 0-2.4-1.1-2.4-2.4V2.4c0-1.3 1.1-2.4 2.4-2.4 1.3 0 2.4 1.1 2.4 2.4v42.2C32.9 45.9 31.9 47 30.5 47z"/><path d="M37.6 38c-1.3 0-2.4-1.1-2.4-2.4V11.4c0-1.3 1.1-2.4 2.4-2.4 1.3 0 2.4 1.1 2.4 2.4v24.1C40 36.9 38.9 38 37.6 38z"/><path d="M44.6 28.9c-1.3 0-2.4-1.1-2.4-2.4v-6c0-1.3 1.1-2.4 2.4-2.4S47 19.2 47 20.5v6C47 27.8 45.9 28.9 44.6 28.9z"/></svg>
